<svg width="114" height="37" viewBox="0 0 114 37" fill="none" xmlns="http://www.w3.org/2000/svg">
<path d="M16.65 11.2H11.5V5.45H4V11.2H0V18.4H4V27.25C4 30.9 4.9 33.4 6.75 34.85C8.6 36.25 11.9 36.7 16.65 36.2V29.4C13 29.6 11.5 29.25 11.5 27.25V18.4H16.65V11.2Z" fill="white"/>
<path d="M41.8082 33.1C44.3582 30.55 45.6582 27.4 45.6582 23.7C45.6582 20 44.3582 16.9 41.8082 14.35C39.2582 11.8 36.1082 10.5 32.4082 10.5C28.7082 10.5 25.5582 11.8 23.0082 14.35C20.4582 16.9 19.1582 20 19.1582 23.7C19.1582 27.4 20.4582 30.55 23.0082 33.1C25.5582 35.65 28.7082 36.9 32.4082 36.9C36.1082 36.9 39.2582 35.65 41.8082 33.1ZM28.3082 27.95C27.2082 26.85 26.6582 25.45 26.6582 23.7C26.6582 21.95 27.2082 20.55 28.3082 19.45C29.4082 18.35 30.7582 17.8 32.4082 17.8C34.0582 17.8 35.4082 18.35 36.5082 19.45C37.6082 20.55 38.1582 21.95 38.1582 23.7C38.1582 25.45 37.6082 26.85 36.5082 27.95C35.4082 29.05 34.0582 29.6 32.4082 29.6C30.7582 29.6 29.4082 29.05 28.3082 27.95Z" fill="white"/>
<path d="M56.8004 7.7C58.6004 5.9 58.6004 3.1 56.8004 1.35C55.0504 -0.45 52.2504 -0.45 50.4504 1.35C48.7004 3.1 48.7004 5.9 50.4504 7.7C52.2504 9.45 55.0504 9.45 56.8004 7.7ZM57.4004 36.2V11.2H49.9004V36.2H57.4004Z" fill="white"/>
<path d="M90.8887 10.5C87.5887 10.5 85.1887 11.6 83.6387 13.8C82.1887 11.6 79.9887 10.5 77.0887 10.5C73.9887 10.5 71.7387 11.5 70.3887 13.5V11.2H62.8887V36.2H70.3887V22.1C70.3887 19.15 71.8387 17.4 74.2887 17.4C76.6387 17.4 77.8887 18.95 77.8887 21.5V36.2H85.3887V22.1C85.3887 19.15 86.8387 17.4 89.2887 17.4C91.6387 17.4 92.8887 18.95 92.8887 21.5V36.2H100.389V20.85C100.389 17.7 99.5387 15.2 97.7887 13.35C96.0387 11.45 93.7387 10.5 90.8887 10.5Z" fill="white"/>
<path d="M112.416 7.7C114.216 5.9 114.216 3.1 112.416 1.35C110.666 -0.45 107.866 -0.45 106.066 1.35C104.316 3.1 104.316 5.9 106.066 7.7C107.866 9.45 110.666 9.45 112.416 7.7ZM113.016 36.2V11.2H105.516V36.2H113.016Z" fill="white"/>
</svg>
